<svg width="500" height="500" viewBox="0 0 500 500" fill="none" xmlns="http://www.w3.org/2000/svg">
<g clip-path="url(#clip0_477_92)">
<path d="M500 0H0V500H500V0Z" fill="#AAD2DA"/>
<g style="mix-blend-mode:multiply">
<path d="M500 405.227H0V499.997H500V405.227Z" fill="#AAD2DA"/>
</g>
<g style="mix-blend-mode:multiply">
<path d="M250 478.05C374.126 478.05 474.75 467.613 474.75 454.74C474.75 441.866 374.126 431.43 250 431.43C125.874 431.43 25.25 441.866 25.25 454.74C25.25 467.613 125.874 478.05 250 478.05Z" fill="#AAD2DA"/>
</g>
<path opacity="0.3" d="M251.44 148.807C254.338 123.527 247.082 98.1313 231.266 78.1991C215.449 58.2668 192.366 45.4291 167.09 42.5069C141.812 39.6113 116.418 46.8688 96.4884 62.685C76.5584 78.5011 63.7221 101.582 60.7998 126.857L47.2598 244.477L237.89 266.477L251.44 148.807Z" fill="white"/>
<path d="M331.759 308.061C326.789 303.817 320.339 301.718 313.823 302.222C307.308 302.726 301.258 305.793 296.999 310.751C292.743 315.725 290.635 322.185 291.14 328.712C291.644 335.24 294.719 341.299 299.689 345.561L355.399 393.271L387.519 355.781L331.759 308.061Z" fill="#89BD9C" stroke="black" stroke-width="2" stroke-miterlimit="10"/>
<path d="M355.35 393.269L411.06 440.999C413.521 443.108 416.374 444.71 419.455 445.716C422.536 446.722 425.785 447.111 429.017 446.862C432.248 446.612 435.399 445.728 438.289 444.261C441.179 442.793 443.751 440.771 445.86 438.309C447.97 435.847 449.574 432.994 450.581 429.912C451.587 426.83 451.977 423.579 451.727 420.347C451.477 417.114 450.593 413.962 449.125 411.071C447.656 408.181 445.633 405.607 443.17 403.499L387.47 355.789L355.35 393.269Z" fill="black" stroke="black" stroke-width="2" stroke-miterlimit="10"/>
<path d="M336 320.817L330.3 315.997C328.231 314.217 325.83 312.862 323.237 312.011C320.643 311.16 317.907 310.829 315.185 311.037C312.463 311.245 309.809 311.988 307.375 313.224C304.941 314.459 302.775 316.163 301 318.237" stroke="white" stroke-width="1.26" stroke-linecap="round" stroke-linejoin="round"/>
<path d="M354.181 336.42L343.461 327.25" stroke="white" stroke-width="1.26" stroke-linecap="round" stroke-linejoin="round"/>
<path d="M392.043 443.306C400.502 428.618 395.453 409.853 380.766 401.394C366.078 392.935 347.314 397.984 338.854 412.671C330.395 427.359 335.444 446.123 350.131 454.583C364.819 463.042 383.584 457.993 392.043 443.306Z" fill="black" stroke="black" stroke-width="2" stroke-miterlimit="10"/>
<path d="M365.807 456.987C382.715 455.793 395.453 441.119 394.259 424.211C393.065 407.304 378.39 394.566 361.483 395.76C344.575 396.954 331.837 411.628 333.031 428.536C334.225 445.443 348.9 458.181 365.807 456.987Z" fill="#4260A6"/>
<path d="M365.807 456.987C382.715 455.793 395.453 441.119 394.259 424.211C393.065 407.304 378.39 394.566 361.483 395.76C344.575 396.954 331.837 411.628 333.031 428.536C334.225 445.443 348.9 458.181 365.807 456.987Z" stroke="#1E1E1E" stroke-width="2" stroke-miterlimit="10"/>
<path d="M337.211 425.25L388.781 424.43" stroke="white" stroke-width="2" stroke-linecap="round" stroke-linejoin="round"/>
<path d="M286.636 460.566C320.274 458.791 346.103 430.085 344.329 396.448C342.554 362.811 313.847 336.981 280.21 338.756C246.573 340.53 220.743 369.237 222.518 402.874C224.293 436.511 252.999 462.341 286.636 460.566Z" fill="black" stroke="black" stroke-width="2" stroke-miterlimit="10"/>
<path d="M257.379 347.946C278.051 347.946 294.809 331.188 294.809 310.516C294.809 289.844 278.051 273.086 257.379 273.086C236.707 273.086 219.949 289.844 219.949 310.516C219.949 331.188 236.707 347.946 257.379 347.946Z" fill="black" stroke="black" stroke-width="2" stroke-miterlimit="10"/>
<path d="M267.147 344.05C286.739 337.457 297.277 316.229 290.684 296.637C284.09 277.044 262.862 266.507 243.27 273.1C223.678 279.694 213.14 300.922 219.734 320.514C226.327 340.106 247.555 350.644 267.147 344.05Z" fill="#D068A0"/>
<path d="M267.147 344.05C286.739 337.457 297.277 316.229 290.684 296.637C284.09 277.044 262.862 266.507 243.27 273.1C223.678 279.694 213.14 300.922 219.734 320.514C226.327 340.106 247.555 350.644 267.147 344.05Z" stroke="#1E1E1E" stroke-width="2" stroke-miterlimit="10"/>
<path d="M276.991 328.604L231.801 284.844" stroke="white" stroke-width="2" stroke-linecap="round" stroke-linejoin="round"/>
<path d="M322.983 439.666C346.801 415.847 346.801 377.231 322.983 353.413C299.165 329.595 260.548 329.595 236.73 353.413C212.912 377.231 212.912 415.847 236.73 439.666C260.548 463.484 299.165 463.484 322.983 439.666Z" fill="#EBCE19"/>
<path d="M322.983 439.666C346.801 415.847 346.801 377.231 322.983 353.413C299.165 329.595 260.548 329.595 236.73 353.413C212.912 377.231 212.912 415.847 236.73 439.666C260.548 463.484 299.165 463.484 322.983 439.666Z" stroke="#1E1E1E" stroke-width="2" stroke-miterlimit="10"/>
<path d="M301.48 347.688L255.59 439.337" stroke="white" stroke-width="2" stroke-linecap="round" stroke-linejoin="round"/>
<path d="M210.88 215.097L177.88 208.657C177.88 208.657 174.07 233.397 175.88 234.657C184.15 240.037 206.19 246.387 214.78 247.067C224.94 247.877 232.34 241.717 234.35 237.587C238.47 229.127 236.35 199.267 235.19 187.867C227.09 189.647 223.14 188.867 214.66 190.027C214.48 191.027 211.47 211.477 211.47 211.477L209.75 225.997" fill="white"/>
<path d="M210.88 215.097L177.88 208.657C177.88 208.657 174.07 233.397 175.88 234.657C184.15 240.037 206.19 246.387 214.78 247.067C224.94 247.877 232.34 241.717 234.35 237.587C238.47 229.127 236.35 199.267 235.19 187.867C227.09 189.647 223.14 188.867 214.66 190.027C214.48 191.027 211.47 211.477 211.47 211.477L209.75 225.997" stroke="black" stroke-width="0.95" stroke-miterlimit="10"/>
<path d="M235.39 188.639C237.27 183.749 235.56 176.759 235.39 176.259L236.39 168.259C236.475 167.582 236.288 166.898 235.87 166.358C235.452 165.819 234.837 165.466 234.16 165.379L233.61 165.309C232.932 165.224 232.249 165.411 231.709 165.829C231.169 166.247 230.817 166.862 230.73 167.539L230.15 172.129L230.3 165.499C230.316 164.748 230.033 164.02 229.514 163.477C228.995 162.933 228.281 162.618 227.53 162.599H226.93C226.557 162.59 226.186 162.654 225.839 162.789C225.491 162.923 225.174 163.124 224.904 163.382C224.635 163.639 224.419 163.947 224.269 164.288C224.119 164.629 224.037 164.997 224.03 165.369L223.87 172.529H223.8L223.32 164.609C223.298 164.238 223.203 163.874 223.04 163.54C222.878 163.205 222.65 162.906 222.371 162.66C222.092 162.413 221.768 162.225 221.415 162.104C221.063 161.984 220.691 161.935 220.32 161.959H219.72C218.97 162.008 218.271 162.351 217.773 162.912C217.275 163.474 217.018 164.21 217.06 164.959L217.55 173.039L216.89 168.489C216.791 167.832 216.435 167.24 215.901 166.845C215.367 166.449 214.697 166.282 214.04 166.379L213.51 166.449C213.184 166.497 212.87 166.608 212.587 166.778C212.304 166.947 212.058 167.17 211.862 167.435C211.666 167.7 211.524 168.001 211.445 168.321C211.365 168.641 211.35 168.973 211.4 169.299L212.57 177.299C212.57 177.409 212.62 177.509 212.65 177.619C212.54 178.879 213.29 181.149 212.52 182.739C212.102 182.39 211.579 182.192 211.035 182.176C210.491 182.159 209.958 182.326 209.52 182.649L209 182.999C208.745 183.19 208.531 183.429 208.37 183.703C208.208 183.977 208.102 184.28 208.057 184.595C208.013 184.91 208.03 185.23 208.11 185.538C208.189 185.846 208.328 186.135 208.52 186.389L215.61 195.809" fill="white"/>
<path d="M235.39 188.639C237.27 183.749 235.56 176.759 235.39 176.259L236.39 168.259C236.475 167.582 236.288 166.898 235.87 166.358C235.452 165.819 234.837 165.466 234.16 165.379L233.61 165.309C232.932 165.224 232.249 165.411 231.709 165.829C231.169 166.247 230.817 166.862 230.73 167.539L230.15 172.129L230.3 165.499C230.316 164.748 230.033 164.02 229.514 163.477C228.995 162.933 228.281 162.618 227.53 162.599H226.93C226.557 162.59 226.186 162.654 225.839 162.789C225.491 162.923 225.174 163.124 224.904 163.382C224.635 163.639 224.419 163.947 224.269 164.288C224.119 164.629 224.037 164.997 224.03 165.369L223.87 172.529H223.8L223.32 164.609C223.298 164.238 223.203 163.874 223.04 163.54C222.878 163.205 222.65 162.906 222.371 162.66C222.092 162.413 221.768 162.225 221.415 162.104C221.063 161.984 220.691 161.935 220.32 161.959H219.72C218.97 162.008 218.271 162.351 217.773 162.912C217.275 163.474 217.018 164.21 217.06 164.959L217.55 173.039L216.89 168.489C216.791 167.832 216.435 167.24 215.901 166.845C215.367 166.449 214.697 166.282 214.04 166.379L213.51 166.449C213.184 166.497 212.87 166.608 212.587 166.778C212.304 166.947 212.058 167.17 211.862 167.435C211.666 167.7 211.524 168.001 211.445 168.321C211.365 168.641 211.35 168.973 211.4 169.299L212.57 177.299C212.57 177.409 212.62 177.509 212.65 177.619C212.54 178.879 213.29 181.149 212.52 182.739C212.102 182.39 211.579 182.192 211.035 182.176C210.491 182.159 209.958 182.326 209.52 182.649L209 182.999C208.745 183.19 208.531 183.429 208.37 183.703C208.208 183.977 208.102 184.28 208.057 184.595C208.013 184.91 208.03 185.23 208.11 185.538C208.189 185.846 208.328 186.135 208.52 186.389L215.61 195.809" stroke="black" stroke-width="0.95" stroke-miterlimit="10"/>
<path d="M229.84 175.43C227.175 176.42 224.911 178.26 223.396 180.665C221.881 183.071 221.201 185.909 221.46 188.74" stroke="black" stroke-width="0.95" stroke-linecap="round" stroke-linejoin="round"/>
<path d="M84.6005 223.917L117.66 217.477C117.66 217.477 121.47 242.227 119.66 243.477C111.39 248.867 89.3605 255.207 80.7605 255.897C70.6105 256.697 63.2105 250.538 61.1905 246.408C57.0705 237.948 59.1905 208.087 60.3605 196.688C68.4605 198.467 72.3605 197.687 80.8905 198.857C81.0705 199.857 84.0805 220.298 84.0805 220.298L85.7805 234.818" fill="white"/>
<path d="M84.6005 223.917L117.66 217.477C117.66 217.477 121.47 242.227 119.66 243.477C111.39 248.867 89.3605 255.207 80.7605 255.897C70.6105 256.697 63.2105 250.538 61.1905 246.408C57.0705 237.948 59.1905 208.087 60.3605 196.688C68.4605 198.467 72.3605 197.687 80.8905 198.857C81.0705 199.857 84.0805 220.298 84.0805 220.298L85.7805 234.818" stroke="black" stroke-width="0.95" stroke-miterlimit="10"/>
<path d="M60.1002 197.458C58.2102 192.568 59.9302 185.578 60.1002 185.088L59.1002 177.088C59.0152 176.411 59.2021 175.727 59.6201 175.188C60.0381 174.648 60.653 174.296 61.3302 174.208L61.8802 174.138C62.215 174.096 62.5549 174.121 62.8804 174.21C63.2058 174.299 63.5105 174.452 63.777 174.659C64.0435 174.866 64.2666 175.123 64.4336 175.417C64.6006 175.71 64.7081 176.033 64.7502 176.368L65.3402 180.958L65.1902 174.328C65.1754 173.95 65.2371 173.572 65.3715 173.218C65.506 172.863 65.7104 172.54 65.9727 172.266C66.235 171.993 66.5497 171.775 66.8981 171.626C67.2464 171.477 67.6212 171.399 68.0002 171.398H68.6102C69.3617 171.382 70.089 171.665 70.6326 172.184C71.1762 172.703 71.4918 173.417 71.5102 174.168L71.6702 181.328H71.7402L72.2202 173.398C72.2418 173.027 72.3367 172.663 72.4995 172.329C72.6622 171.994 72.8896 171.695 73.1684 171.449C73.4473 171.202 73.7722 171.014 74.1243 170.893C74.4764 170.773 74.8489 170.724 75.2202 170.748H75.8202C76.5693 170.797 77.2689 171.14 77.7669 171.701C78.265 172.263 78.5213 172.999 78.4802 173.748L78.0002 181.848L78.6702 177.298C78.7666 176.641 79.1197 176.049 79.6521 175.651C80.1844 175.254 80.8526 175.084 81.5102 175.178L82.0502 175.258C82.3753 175.306 82.6878 175.417 82.9699 175.586C83.2519 175.754 83.498 175.977 83.6939 176.241C83.8899 176.505 84.032 176.804 84.112 177.123C84.192 177.442 84.2083 177.773 84.1602 178.098L82.9802 186.098C82.963 186.207 82.9362 186.314 82.9002 186.418C83.0102 187.678 82.2602 189.958 83.0302 191.548C83.4471 191.198 83.9701 190.998 84.5145 190.982C85.0589 190.966 85.5929 191.133 86.0302 191.458L86.4402 191.768C86.6958 191.959 86.9111 192.199 87.0737 192.474C87.2363 192.748 87.343 193.052 87.3876 193.368C87.4322 193.684 87.4139 194.006 87.3337 194.315C87.2535 194.624 87.1129 194.914 86.9202 195.168L79.8402 204.588" fill="white"/>
<path d="M60.1002 197.458C58.2102 192.568 59.9302 185.578 60.1002 185.088L59.1002 177.088C59.0152 176.411 59.2021 175.727 59.6201 175.188C60.0381 174.648 60.653 174.296 61.3302 174.208L61.8802 174.138C62.215 174.096 62.5549 174.121 62.8804 174.21C63.2058 174.299 63.5105 174.452 63.777 174.659C64.0435 174.866 64.2666 175.123 64.4336 175.417C64.6006 175.71 64.7081 176.033 64.7502 176.368L65.3402 180.958L65.1902 174.328C65.1754 173.95 65.2371 173.572 65.3715 173.218C65.506 172.863 65.7104 172.54 65.9727 172.266C66.235 171.993 66.5497 171.775 66.8981 171.626C67.2464 171.477 67.6212 171.399 68.0002 171.398H68.6102C69.3617 171.382 70.089 171.665 70.6326 172.184C71.1762 172.703 71.4918 173.417 71.5102 174.168L71.6702 181.328H71.7402L72.2202 173.398C72.2418 173.027 72.3367 172.663 72.4995 172.329C72.6622 171.994 72.8896 171.695 73.1684 171.449C73.4473 171.202 73.7722 171.014 74.1243 170.893C74.4764 170.773 74.8489 170.724 75.2202 170.748H75.8202C76.5693 170.797 77.2689 171.14 77.7669 171.701C78.265 172.263 78.5213 172.999 78.4802 173.748L78.0002 181.848L78.6702 177.298C78.7666 176.641 79.1197 176.049 79.6521 175.651C80.1844 175.254 80.8526 175.084 81.5102 175.178L82.0502 175.258C82.3753 175.306 82.6878 175.417 82.9699 175.586C83.2519 175.754 83.498 175.977 83.6939 176.241C83.8899 176.505 84.032 176.804 84.112 177.123C84.192 177.442 84.2083 177.773 84.1602 178.098L82.9802 186.098C82.963 186.207 82.9362 186.314 82.9002 186.418C83.0102 187.678 82.2602 189.958 83.0302 191.548C83.4471 191.198 83.9701 190.998 84.5145 190.982C85.0589 190.966 85.5929 191.133 86.0302 191.458L86.4402 191.768C86.6958 191.959 86.9111 192.199 87.0737 192.474C87.2363 192.748 87.343 193.052 87.3876 193.368C87.4322 193.684 87.4139 194.006 87.3337 194.315C87.2535 194.624 87.1129 194.914 86.9202 195.168L79.8402 204.588" stroke="black" stroke-width="0.95" stroke-miterlimit="10"/>
<path d="M65.6504 184.258C68.3089 185.251 70.5668 187.091 72.0758 189.495C73.5848 191.899 74.2611 194.732 74.0004 197.558" stroke="black" stroke-width="0.95" stroke-linecap="round" stroke-linejoin="round"/>
<path d="M192.49 241.656C197.268 238.805 201.282 234.835 204.186 230.088C207.09 225.341 208.797 219.959 209.16 214.406C209.16 214.406 195.51 200.346 181.16 197.016C159.93 192.076 130.16 190.266 118.01 194.406C92.7698 203.046 87.5198 218.786 87.0098 223.856C87.0098 223.856 91.8298 230.306 107.7 233.326L93.7598 294.996C93.7598 294.996 101.12 314.116 132.86 318.236C133.2 318.236 145.74 304.836 145.39 304.876C145.04 304.916 157.64 316.876 157.64 316.876C169.04 314.726 183.15 312.566 193.87 302.226L192.49 241.656Z" fill="white" stroke="black" stroke-width="0.95" stroke-miterlimit="10"/>
<path d="M167.4 183.081L138.27 182.891L137.74 192.191L137.81 192.931C149 194.621 159.43 190.441 167.4 183.081Z" fill="black"/>
<path d="M137.811 192.925L138.301 198.495C138.301 198.495 153.111 202.675 164.001 199.995L165.391 192.605L167.541 183.055H167.411C159.431 190.435 149.001 194.615 137.811 192.925Z" fill="white" stroke="black" stroke-width="0.95" stroke-miterlimit="10"/>
<path d="M151.881 200.776L137.771 193.406L132.301 197.326L142.821 210.976L151.881 200.776Z" fill="white" stroke="black" stroke-width="0.95" stroke-miterlimit="10"/>
<path d="M151.881 200.774L158.601 211.774C158.601 211.774 166.011 205.464 169.831 199.384L165.141 195.234C165.141 195.234 152.001 200.504 151.881 200.774Z" fill="white" stroke="black" stroke-width="0.95" stroke-miterlimit="10"/>
<path d="M145.391 304.853L151.881 200.773" stroke="black" stroke-width="0.55" stroke-linecap="round" stroke-linejoin="round"/>
<path d="M178.63 149.347C180.826 148.273 183.276 147.823 185.711 148.049C188.145 148.274 190.471 149.166 192.433 150.625C194.394 152.085 195.917 154.056 196.832 156.323C197.748 158.59 198.022 161.066 197.625 163.478C197.227 165.891 196.173 168.147 194.578 170.001C192.984 171.854 190.909 173.232 188.583 173.985C186.257 174.738 183.768 174.836 181.39 174.268C179.011 173.701 176.835 172.489 175.1 170.767" fill="white"/>
<path d="M178.63 149.347C180.826 148.273 183.276 147.823 185.711 148.049C188.145 148.274 190.471 149.166 192.433 150.625C194.394 152.085 195.917 154.056 196.832 156.323C197.748 158.59 198.022 161.066 197.625 163.478C197.227 165.891 196.173 168.147 194.578 170.001C192.984 171.854 190.909 173.232 188.583 173.985C186.257 174.738 183.768 174.836 181.39 174.268C179.011 173.701 176.835 172.489 175.1 170.767" stroke="black" stroke-width="0.95" stroke-miterlimit="10"/>
<path d="M180 167.9C180.15 155.09 190 156.08 190 156.08" stroke="black" stroke-width="0.55" stroke-linecap="round" stroke-linejoin="round"/>
<path d="M187.841 161.836C187.841 161.836 180.441 164.726 180.391 164.836" stroke="black" stroke-width="0.55" stroke-linecap="round" stroke-linejoin="round"/>
<path d="M194.475 151.999C197.521 130.381 183.019 110.465 162.084 107.515C141.15 104.565 121.71 119.699 118.664 141.318C115.618 162.936 130.119 182.852 151.054 185.802C171.989 188.751 191.429 173.617 194.475 151.999Z" fill="white" stroke="black" stroke-width="0.95" stroke-miterlimit="10"/>
<path d="M170.89 144.728C170.742 144.384 170.678 144.01 170.702 143.637C170.727 143.263 170.839 142.901 171.03 142.578C171.189 142.304 171.401 142.064 171.653 141.872C171.905 141.68 172.193 141.54 172.5 141.46C172.807 141.38 173.127 141.362 173.441 141.406C173.755 141.451 174.057 141.557 174.33 141.718L183.33 146.978C183.603 147.139 183.842 147.351 184.033 147.604C184.224 147.856 184.363 148.144 184.443 148.45C184.523 148.757 184.542 149.076 184.498 149.39C184.455 149.703 184.35 150.005 184.19 150.278C184.029 150.552 183.817 150.791 183.564 150.982C183.312 151.173 183.024 151.312 182.718 151.392C182.411 151.472 182.092 151.49 181.778 151.447C181.465 151.404 181.163 151.299 180.89 151.138L171.89 145.878C171.441 145.613 171.09 145.21 170.89 144.728Z" fill="black"/>
<path d="M142 150.197C141.488 150.263 140.968 150.163 140.517 149.912C140.066 149.66 139.708 149.271 139.495 148.8C139.283 148.33 139.227 147.804 139.335 147.299C139.444 146.794 139.712 146.338 140.1 145.997L147.74 138.887C147.97 138.663 148.243 138.487 148.542 138.37C148.841 138.252 149.16 138.196 149.482 138.204C149.803 138.212 150.119 138.284 150.412 138.416C150.705 138.548 150.969 138.737 151.187 138.973C151.406 139.208 151.575 139.485 151.686 139.787C151.796 140.088 151.845 140.409 151.829 140.73C151.813 141.051 151.734 141.366 151.595 141.655C151.456 141.945 151.26 142.204 151.02 142.417L143.38 149.527C143.006 149.896 142.521 150.131 142 150.197Z" fill="black"/>
<path d="M116.799 149.287C116.799 149.287 114.869 132.627 125.709 119.187C136.549 105.747 150.489 104.607 161.609 105.867C172.729 107.127 193.119 118.817 194.609 140.677C194.609 140.677 194.929 144.447 192.829 143.567C190.729 142.687 188.279 129.997 179.299 126.317C170.319 122.637 172.179 133.137 162.299 132.367C152.419 131.597 152.749 126.307 146.109 124.867C140.309 123.607 134.849 128.137 134.279 138.107C133.709 148.077 121.999 154.167 116.799 149.287Z" fill="black"/>
<path d="M207.23 128.994C205.23 121.124 197.01 120.764 197.01 120.764C197.01 120.764 202.43 116.814 198.31 111.004C194.19 105.194 186.17 108.444 176.96 105.754C167.75 103.064 167.24 98.6944 153.27 98.2944C139.3 97.8944 134.18 106.774 134.18 106.774V106.934C131.676 108.617 129.377 110.587 127.33 112.804C126.88 113.284 117.77 115.694 115.42 125.674C113.7 133.014 115.11 141.894 115.11 141.894C119.76 147.344 131.63 147.644 135.11 134.054C136.94 126.844 141.26 119.474 157.43 132.944C170.8 144.084 188.15 143.944 188.15 143.944C189.15 144.474 193.23 144.534 193.51 143.764C197.9 141.494 208.86 135.274 207.23 128.994Z" fill="black"/>
<path d="M140.27 101.937C137.053 101.07 133.671 101.004 130.422 101.745C127.173 102.486 124.155 104.011 121.63 106.187C119.836 107.666 118.484 109.61 117.72 111.807C117.352 112.905 117.251 114.076 117.424 115.222C117.598 116.368 118.043 117.456 118.72 118.397C119.429 119.315 120.424 119.969 121.548 120.256C122.672 120.542 123.859 120.444 124.92 119.977" fill="black"/>
<path d="M127 115.617C122.493 116.576 118.219 118.411 114.42 121.017C112.357 122.276 110.667 124.061 109.52 126.187C108.962 127.256 108.724 128.463 108.834 129.663C108.944 130.864 109.397 132.007 110.14 132.957C111.75 134.737 115.06 134.847 116.39 132.847C114.116 134.7 112.066 136.811 110.28 139.137C108.489 141.49 107.573 144.393 107.69 147.347C107.78 148.814 108.287 150.225 109.152 151.413C110.016 152.602 111.202 153.519 112.57 154.057C115.35 154.977 118.86 153.437 119.57 150.607" fill="black"/>
<path d="M174.5 111.725C177.39 110.725 180.4 109.725 182.5 107.485C184.6 105.245 185.28 101.485 183.21 99.2247C181.72 97.6347 179.33 97.3047 177.15 97.3647C172.428 97.4989 167.839 98.9615 163.91 101.585C164.715 100.74 165.279 99.6959 165.546 98.5602C165.813 97.4245 165.772 96.2382 165.428 95.1236C165.083 94.009 164.448 93.0063 163.587 92.219C162.726 91.4317 161.671 90.8883 160.53 90.6447C156.07 89.6447 151.99 93.4947 149.7 97.4447C147.41 101.395 145.75 105.995 142 108.675" fill="black"/>
<path d="M147.301 101.62C148.281 98.7751 148.679 95.7619 148.471 92.76C148.456 91.9957 148.271 91.2443 147.931 90.5599C147.743 90.2331 147.468 89.9659 147.135 89.7889C146.802 89.612 146.427 89.5326 146.051 89.5599C144.871 89.7399 144.381 91.1499 144.201 92.3199C143.734 95.3261 143.697 98.3833 144.091 101.4C144.056 99.3234 143.577 97.2784 142.687 95.4019C141.797 93.5255 140.517 91.8609 138.931 90.5199C138.72 90.2979 138.466 90.1226 138.183 90.0054C137.901 89.8883 137.597 89.8319 137.291 89.8399C136.171 90.0199 135.961 91.53 136.101 92.65C136.716 97.3258 138.735 101.705 141.891 105.21" fill="black"/>
<path d="M129.22 146.74C129.22 146.74 132.86 146.81 133.09 152.93C133.32 159.05 138.23 166.01 142.66 166.33C147.09 166.65 153.061 161.6 160.241 161.96C169.171 162.41 171.83 166.28 177.18 167.11C182.53 167.94 188.85 159.58 190.5 152.33C192.15 145.08 192.87 140.77 194.69 141.13C194.69 141.13 199.14 163.7 183 181.27C166.86 198.84 145.001 193 135.881 186.86C126.761 180.72 124.25 171.29 122.44 168.13C120.63 164.97 121.77 145 129.22 146.74Z" fill="black"/>
<path d="M129.28 146.35C127.23 145.019 124.853 144.278 122.41 144.209C119.966 144.139 117.551 144.743 115.428 145.954C113.305 147.165 111.556 148.938 110.373 151.077C109.19 153.216 108.618 155.639 108.721 158.081C108.823 160.523 109.596 162.89 110.953 164.923C112.311 166.955 114.202 168.575 116.419 169.604C118.637 170.634 121.094 171.033 123.523 170.759C125.952 170.485 128.259 169.548 130.19 168.05" fill="white"/>
<path d="M129.28 146.35C127.23 145.019 124.853 144.278 122.41 144.209C119.966 144.139 117.551 144.743 115.428 145.954C113.305 147.165 111.556 148.938 110.373 151.077C109.19 153.216 108.618 155.639 108.721 158.081C108.823 160.523 109.596 162.89 110.953 164.923C112.311 166.955 114.202 168.575 116.419 169.604C118.637 170.634 121.094 171.033 123.523 170.759C125.952 170.485 128.259 169.548 130.19 168.05" stroke="black" stroke-width="0.95" stroke-miterlimit="10"/>
<path d="M125.64 164.586C127.05 151.856 117.18 151.656 117.18 151.656" stroke="black" stroke-width="0.95" stroke-linecap="round" stroke-linejoin="round"/>
<path d="M118.619 157.625C118.619 157.625 125.619 161.385 125.619 161.475" stroke="black" stroke-width="0.95" stroke-linecap="round" stroke-linejoin="round"/>
<path d="M160 140.148C160 140.148 160.25 149.468 160.31 152.298C160.313 152.404 160.336 152.509 160.379 152.605C160.423 152.702 160.485 152.789 160.562 152.862C160.639 152.935 160.73 152.991 160.829 153.028C160.928 153.065 161.034 153.082 161.14 153.078L166.9 152.888C166.984 152.885 167.067 152.904 167.141 152.943C167.215 152.982 167.277 153.041 167.321 153.112C167.365 153.183 167.389 153.265 167.39 153.349C167.392 153.433 167.371 153.515 167.33 153.588L164 159.658" stroke="black" stroke-width="0.95" stroke-linecap="round" stroke-linejoin="round"/>
<path d="M148.219 157.314C148.289 158.904 147.419 160.244 146.219 160.314C145.019 160.384 144.069 159.124 143.989 157.534C143.909 155.944 144.789 154.604 145.989 154.534C147.189 154.464 148.139 155.724 148.219 157.314Z" fill="black"/>
<path d="M178.001 157.254C178.071 158.854 177.201 160.184 176.001 160.254C174.801 160.324 173.851 159.054 173.771 157.464C173.691 155.874 174.571 154.534 175.771 154.464C176.971 154.394 178.001 155.664 178.001 157.254Z" fill="black"/>
<path d="M164.631 169.305C164.286 168.46 163.734 167.716 163.024 167.142C162.315 166.568 161.472 166.183 160.574 166.022C159.676 165.861 158.752 165.93 157.887 166.223C157.023 166.515 156.247 167.022 155.631 167.695" stroke="white" stroke-width="0.58" stroke-miterlimit="10" stroke-linecap="round"/>
<path d="M224.35 384.06L237.89 266.43L47.2601 244.43L33.7201 362.11C32.2782 374.627 33.316 387.305 36.7743 399.421C40.2325 411.537 46.0434 422.853 53.8752 432.723C61.707 442.593 71.4063 450.824 82.4192 456.945C93.4321 463.067 105.543 466.959 118.06 468.4C143.336 471.295 168.729 464.039 188.658 448.225C208.588 432.411 221.425 409.333 224.35 384.06Z" fill="#C83A4D"/>
<path d="M224.35 384.06L237.89 266.43L47.2601 244.43L33.7201 362.11C32.2782 374.627 33.316 387.305 36.7743 399.421C40.2325 411.537 46.0434 422.853 53.8752 432.723C61.707 442.593 71.4063 450.824 82.4192 456.945C93.4321 463.067 105.543 466.959 118.06 468.4C143.336 471.295 168.729 464.039 188.658 448.225C208.588 432.411 221.425 409.333 224.35 384.06Z" stroke="black" stroke-width="2" stroke-miterlimit="10"/>
<path d="M251.44 148.807C254.338 123.527 247.082 98.1313 231.266 78.1991C215.449 58.2668 192.366 45.4291 167.09 42.5069C141.812 39.6113 116.418 46.8688 96.4884 62.685C76.5584 78.5011 63.7221 101.582 60.7998 126.857L47.2598 244.477L237.89 266.477L251.44 148.807Z" stroke="black" stroke-width="2" stroke-miterlimit="10"/>
<path d="M227.071 114.995C221.719 99.9222 211.736 86.9289 198.551 77.875" stroke="black" stroke-width="2" stroke-linecap="round" stroke-linejoin="round"/>
<path d="M230.879 148.836C231.694 141.823 231.523 134.731 230.369 127.766" stroke="black" stroke-width="2" stroke-linecap="round" stroke-linejoin="round"/>
<path d="M58.4901 316.406L52.9301 364.736C51.3438 378.393 53.5166 392.223 59.214 404.736C64.9115 417.248 73.9174 427.967 85.2601 435.736" stroke="white" stroke-width="2" stroke-linecap="round" stroke-linejoin="round"/>
<path d="M63.5895 272.141L60.5195 298.841" stroke="white" stroke-width="2" stroke-linecap="round" stroke-linejoin="round"/>
<path d="M255.655 229.159V211.824L288.72 159.818H304.45V182.932H295.462L277.645 211.182V211.824H326.44V229.159H255.655ZM295.622 242V223.862L296.104 216.318V159.818H316.97V242H295.622ZM371.594 244.247C364.13 244.22 357.683 242.495 352.253 239.071C346.822 235.646 342.635 230.711 339.693 224.263C336.75 217.816 335.292 210.085 335.319 201.07C335.345 192.027 336.817 184.35 339.733 178.036C342.675 171.723 346.849 166.921 352.253 163.63C357.683 160.34 364.13 158.695 371.594 158.695C379.058 158.695 385.505 160.353 390.936 163.67C396.366 166.961 400.553 171.763 403.496 178.076C406.439 184.39 407.897 192.054 407.87 201.07C407.87 210.138 406.398 217.897 403.456 224.344C400.513 230.791 396.326 235.727 390.896 239.151C385.492 242.548 379.058 244.247 371.594 244.247ZM371.594 226.109C375.446 226.109 378.603 224.103 381.064 220.09C383.552 216.051 384.783 209.71 384.756 201.07C384.756 195.425 384.194 190.81 383.071 187.225C381.947 183.641 380.396 180.992 378.416 179.28C376.436 177.541 374.162 176.672 371.594 176.672C367.742 176.672 364.599 178.625 362.164 182.531C359.73 186.436 358.486 192.616 358.432 201.07C358.406 206.821 358.954 211.556 360.078 215.275C361.201 218.967 362.753 221.695 364.732 223.461C366.739 225.227 369.026 226.109 371.594 226.109ZM417.541 229.159V211.824L450.606 159.818H466.336V182.932H457.347L439.531 211.182V211.824H488.326V229.159H417.541ZM457.508 242V223.862L457.989 216.318V159.818H478.856V242H457.508Z" fill="black"/>
</g>
<defs>
<clipPath id="clip0_477_92">
<rect width="500" height="500" fill="white"/>
</clipPath>
</defs>
</svg>
