<svg width="34" height="31" viewBox="0 0 34 31" fill="none" xmlns="http://www.w3.org/2000/svg">
<path d="M9.29855 0.00615177C9.35518 0.00597162 9.41181 0.00579146 9.47016 0.00560584C9.65672 0.00509776 9.84329 0.00499159 10.0299 0.00493386C10.1601 0.0047614 10.2903 0.00458093 10.4205 0.00439284C10.6932 0.00407197 10.9659 0.00397225 11.2387 0.00400405C11.5873 0.0040095 11.936 0.00327724 12.2846 0.00235342C12.5535 0.00175562 12.8224 0.00164824 13.0913 0.00167658C13.2198 0.00161347 13.3483 0.0013773 13.4768 0.000961419C13.6569 0.000433093 13.837 0.000591178 14.0171 0.000913435C14.0697 0.000612001 14.1222 0.000310568 14.1764 0C14.5682 0.0017723 14.9359 0.0504181 15.3084 0.174866C15.3925 0.280051 15.3925 0.280051 15.4757 0.409543C15.5035 0.451999 15.5312 0.494454 15.5598 0.538197C15.6708 0.728021 15.6898 0.874719 15.6896 1.09042C15.6897 1.1747 15.6897 1.1747 15.6898 1.26068C15.6896 1.3223 15.6894 1.38392 15.6892 1.4474C15.6893 1.5123 15.6893 1.5772 15.6893 1.64406C15.6892 1.82204 15.689 2.00001 15.6886 2.17799C15.6883 2.36398 15.6882 2.54997 15.6882 2.73596C15.688 3.08816 15.6876 3.44037 15.687 3.79257C15.6864 4.19354 15.6861 4.59452 15.6859 4.99549C15.6853 5.82032 15.6844 6.64515 15.6832 7.46998C15.7478 7.46126 15.8124 7.45253 15.8789 7.44354C16.0555 7.4215 16.2276 7.4098 16.4058 7.41025C16.4593 7.41026 16.5129 7.41026 16.568 7.41027C16.6526 7.41068 16.6526 7.41068 16.7388 7.41111C16.827 7.41122 16.827 7.41122 16.917 7.41134C17.1035 7.41163 17.29 7.41231 17.4765 7.41299C17.6035 7.41326 17.7305 7.41351 17.8575 7.41372C18.1677 7.41431 18.4779 7.41521 18.7881 7.41634C18.9577 8.03038 18.9577 8.03038 19.0233 8.33138C19.184 9.05604 19.3625 9.76767 19.591 10.4739C19.604 10.5151 19.617 10.5563 19.6304 10.5988C20.1436 12.2162 20.917 13.7874 21.8839 15.1787C22 15.3552 22 15.3552 22 15.4624C19.9154 15.4624 17.8309 15.4624 15.6832 15.4624C15.6857 15.9415 15.6881 16.4205 15.6907 16.9141C15.6919 17.2563 15.693 17.5985 15.6939 17.9408C15.6951 18.384 15.6966 18.8272 15.6993 19.2704C15.7015 19.6214 15.7028 19.9723 15.7033 20.3232C15.7036 20.509 15.7042 20.6947 15.7058 20.8804C15.7075 21.088 15.7076 21.2956 15.7075 21.5033C15.7083 21.5644 15.709 21.6256 15.7098 21.6886C15.7078 22.074 15.6632 22.3875 15.3935 22.678C15.1535 22.892 14.9252 22.9852 14.607 22.9865C14.5263 22.9871 14.5263 22.9871 14.444 22.9878C14.3855 22.9878 14.3271 22.9877 14.2669 22.9877C14.1739 22.9882 14.1739 22.9882 14.079 22.9888C13.874 22.9898 13.6689 22.99 13.4639 22.9901C13.3573 22.9904 13.2507 22.9906 13.1442 22.9909C12.8091 22.9918 12.474 22.9921 12.1389 22.992C11.794 22.9919 11.4491 22.9931 11.1042 22.9948C10.8074 22.9962 10.5107 22.9967 10.2139 22.9967C10.037 22.9966 9.86003 22.997 9.68307 22.9981C9.48548 22.9991 9.28794 22.9988 9.09036 22.9982C9.03225 22.9988 8.97414 22.9994 8.91427 23C8.51629 22.9967 8.21428 22.9389 7.91783 22.6503C7.89347 22.6149 7.86911 22.5795 7.84401 22.543C7.81869 22.5076 7.79336 22.4722 7.76727 22.4357C7.65682 22.2396 7.64664 22.058 7.64687 21.8355C7.64676 21.7512 7.64676 21.7512 7.64664 21.6651C7.64684 21.6036 7.64703 21.5422 7.64723 21.4789C7.64722 21.414 7.64721 21.3491 7.6472 21.2822C7.64724 21.1045 7.6475 20.9267 7.64788 20.749C7.64821 20.5631 7.64824 20.3773 7.64831 20.1914C7.64847 19.8396 7.64891 19.4878 7.64945 19.136C7.65005 18.7354 7.65034 18.3348 7.65061 17.9342C7.65117 17.1103 7.65211 16.2864 7.65331 15.4624C7.61839 15.4627 7.58347 15.4629 7.54749 15.4632C6.69675 15.4691 5.84602 15.4735 4.99527 15.4763C4.58384 15.4777 4.17243 15.4796 3.76102 15.4827C3.40231 15.4853 3.04362 15.4871 2.6849 15.4877C2.49506 15.488 2.30525 15.4888 2.11542 15.4908C1.9032 15.493 1.69101 15.493 1.47878 15.4929C1.41624 15.4938 1.35371 15.4948 1.28928 15.4958C0.915956 15.4934 0.658257 15.4452 0.372894 15.1942C-0.180666 14.611 0.0447437 13.3182 0.0487713 12.5709C0.0490769 12.5083 0.0493827 12.4457 0.0496976 12.3812C0.0513731 12.051 0.0534497 11.7208 0.0558288 11.3906C0.0581862 11.0505 0.0590202 10.7105 0.0595348 10.3705C0.0602235 10.1076 0.0620808 9.84476 0.0642521 9.5819C0.0650793 9.4565 0.0654608 9.33109 0.0653809 9.20568C0.0653713 9.03061 0.0670283 8.85563 0.0690812 8.68056C0.0687036 8.62929 0.0683259 8.57801 0.0679368 8.52517C0.0743221 8.18233 0.150445 7.9489 0.372894 7.68455C0.654064 7.45563 0.891514 7.40953 1.24594 7.40989C1.33027 7.40978 1.33027 7.40978 1.41631 7.40967C1.47742 7.40986 1.53853 7.41006 1.60149 7.41025C1.66627 7.41025 1.73105 7.41024 1.7978 7.41023C1.97497 7.41026 2.15213 7.41053 2.3293 7.41091C2.51463 7.41124 2.69996 7.41127 2.88529 7.41134C3.23602 7.4115 3.58675 7.41194 3.93749 7.41248C4.33688 7.41308 4.73626 7.41338 5.13565 7.41364C5.95703 7.41421 6.7784 7.41515 7.59977 7.41634C7.59996 7.36676 7.59997 7.36676 7.60016 7.31618C7.60333 6.51071 7.60738 5.70526 7.61239 4.89981C7.6148 4.51029 7.61691 4.12077 7.61832 3.73125C7.61955 3.39162 7.62134 3.052 7.62379 2.71237C7.62507 2.53265 7.62599 2.35295 7.62641 2.17322C7.62693 1.97225 7.62843 1.77132 7.63016 1.57036C7.63008 1.51121 7.63001 1.45206 7.62993 1.39112C7.63484 0.987189 7.672 0.665088 7.94104 0.345845C8.36525 -0.00837753 8.76853 0.00590809 9.29855 0.00615177Z" fill="#27839F"/>
<path d="M24.8037 0.216629C24.8563 0.243713 24.9089 0.270798 24.9631 0.298703C25.2624 0.549364 25.4727 0.93189 25.5323 1.3197C25.5437 1.82961 25.4229 2.17925 25.0997 2.56723C24.6747 2.92639 24.3174 3.04686 23.7629 3.00058C23.3929 2.92033 23.0396 2.6972 22.8326 2.37681C22.7017 2.24471 22.6612 2.24382 22.4813 2.23565C22.1245 2.25479 21.8121 2.36417 21.538 2.59677C21.4801 2.66665 21.4801 2.66665 21.4209 2.73794C21.3954 2.76435 21.3698 2.79075 21.3435 2.81796C20.8364 3.35896 20.7766 4.10502 20.7801 4.81605C20.7804 4.87802 20.7807 4.93998 20.781 5.00382C20.8238 8.1997 21.9833 12.0569 24.2312 14.399C24.2828 14.4163 24.3343 14.4337 24.3874 14.4515C24.4526 14.5242 24.4526 14.5242 24.5207 14.6157C24.9849 15.1818 25.7222 15.5076 26.4333 15.5973C27.3363 15.659 28.0641 15.3124 28.7284 14.7269C29.2603 14.2452 29.6932 13.7043 30.06 13.0858C30.093 13.0336 30.126 12.9814 30.16 12.9276C30.437 12.4871 30.6737 12.0347 30.8927 11.5625C30.9113 11.5228 30.9299 11.483 30.949 11.442C31.9201 9.33756 33.0321 5.90286 32.296 3.56483C32.0737 2.98912 31.8087 2.6473 31.257 2.37025C31.0254 2.26943 30.8312 2.22079 30.5804 2.26519C30.481 2.36134 30.3998 2.46537 30.3147 2.57461C30.0822 2.83593 29.7526 2.98321 29.4087 3.01125C28.8516 3.02088 28.5519 2.88962 28.1452 2.49931C27.8574 2.17586 27.7661 1.80139 27.7701 1.37223C27.7958 0.973921 27.9737 0.665468 28.2385 0.374211C28.5833 0.10292 28.992 -0.0116628 29.4258 0.00651969C29.7911 0.0539124 30.2398 0.235556 30.4764 0.531793C30.4764 0.566461 30.4764 0.601129 30.4764 0.636847C30.5536 0.610846 30.5536 0.610846 30.6325 0.58432C31.46 0.697284 32.3762 1.00921 32.9354 1.6677C32.9805 1.72945 32.9805 1.72945 33.0265 1.79245C33.0584 1.82265 33.0903 1.85285 33.1232 1.88396C33.2551 2.02437 33.349 2.17664 33.4428 2.34398C33.4609 2.37611 33.479 2.40823 33.4976 2.44132C33.6912 2.79603 33.8591 3.16855 33.8591 3.57838C33.8935 3.59571 33.9278 3.61304 33.9632 3.6309C34.2047 7.4302 33.2674 11.7625 30.8407 14.7667C30.7807 14.845 30.7807 14.845 30.7195 14.9249C30.5076 15.2007 30.5076 15.2007 30.4243 15.292C30.39 15.292 30.3556 15.292 30.3202 15.292C30.3074 15.3223 30.2945 15.3526 30.2812 15.3839C30.2066 15.5194 30.1233 15.6103 30.008 15.7122C29.9736 15.7122 29.9393 15.7122 29.9039 15.7122C29.8867 15.7642 29.8695 15.8162 29.8519 15.8698C29.755 15.9575 29.6595 16.0371 29.5559 16.116C29.5257 16.1391 29.4955 16.1621 29.4644 16.1859C28.8458 16.6486 28.1735 17.0079 27.4058 17.1304C27.4062 17.1591 27.4065 17.1878 27.4069 17.2174C27.4388 19.9881 27.4135 22.8522 26.2609 25.4297C26.2309 25.4998 26.201 25.5699 26.171 25.6401C25.6084 26.9271 24.739 28.1566 23.6588 29.0541C23.5994 29.107 23.5994 29.107 23.5388 29.161C21.926 30.5637 19.8287 31.1277 17.7289 30.976C16.1689 30.8413 14.783 30.2039 13.4895 29.345C11.852 28.2729 10.1479 27.6948 8.20207 27.6359C8.1812 27.6886 8.16034 27.7414 8.13884 27.7957C7.6785 28.9269 6.98058 29.7687 5.84388 30.2557C4.97478 30.566 3.94616 30.5492 3.10188 30.1572C2.9019 30.0464 2.71527 29.9229 2.52941 29.7895C2.48808 29.7608 2.44676 29.7321 2.40418 29.7025C1.6323 29.1369 1.187 28.2532 1.02017 27.3207C0.926199 26.1811 1.15149 25.205 1.88823 24.315C1.96728 24.2269 1.96728 24.2269 1.95694 24.1166C2.031 24.0759 2.031 24.0759 2.10656 24.0345C2.26708 23.9428 2.41351 23.8396 2.56194 23.7292C2.98627 23.426 3.46688 23.1847 3.98661 23.1185C4.04309 23.111 4.09958 23.1034 4.15778 23.0956C5.15319 22.994 6.07372 23.2545 6.86197 23.8882C7.55979 24.4895 8.01894 25.2003 8.20207 26.1126C8.27023 26.1139 8.33839 26.1153 8.40861 26.1167C10.6994 26.181 12.615 26.9603 14.5468 28.1637C16.1393 29.1551 17.8927 29.7153 19.7685 29.2902C20.9756 28.9937 20.9756 28.9937 21.9934 28.3187C22.0623 28.2731 22.1317 28.2283 22.2016 28.1841C22.4879 27.9932 22.7334 27.7684 22.9822 27.5308C23.0449 27.4735 23.0449 27.4735 23.1089 27.4151C23.515 27.0294 23.8196 26.5795 24.1271 26.1126C24.1577 26.0667 24.1882 26.0208 24.2196 25.9735C25.5895 23.7905 25.8269 21.0757 25.8738 18.5585C25.8761 18.4452 25.8784 18.3319 25.8806 18.2186C25.8862 17.9434 25.8915 17.6682 25.8966 17.3931C25.8279 17.3931 25.7592 17.3931 25.6884 17.3931C25.6884 17.3237 25.6884 17.2544 25.6884 17.1829C25.7743 17.1656 25.8602 17.1483 25.9486 17.1304C25.8939 17.1272 25.8392 17.1239 25.7828 17.1206C24.9449 17.0106 24.1721 16.4723 23.5547 15.9223C23.5091 15.8826 23.4634 15.8429 23.4164 15.8021C22.9818 15.4175 22.6395 14.9969 22.3065 14.5221C22.2545 14.4612 22.2545 14.4612 22.2016 14.399C22.15 14.399 22.0985 14.399 22.0454 14.399C22.0263 14.3187 22.0263 14.3187 22.0068 14.2367C21.9474 14.0277 21.8478 13.867 21.7267 13.6866C21.6839 13.6212 21.6413 13.5556 21.5988 13.49C21.5775 13.4573 21.5562 13.4245 21.5342 13.3908C19.8718 10.8172 18.6599 6.61412 19.2658 3.55473C19.4746 2.62568 19.9624 1.77666 20.761 1.24748C21.2211 0.965873 21.6604 0.795063 22.1823 0.676858C22.356 0.640314 22.356 0.640314 22.5138 0.58432C22.5556 0.587367 22.5973 0.590414 22.6403 0.593553C22.82 0.581145 22.8664 0.514271 22.9887 0.38406C23.4869 -0.0846974 24.2147 -0.104388 24.8037 0.216629ZM3.10188 25.2196C3.07739 25.2454 3.05291 25.2711 3.02768 25.2976C2.6131 25.7503 2.4821 26.2937 2.47737 26.9005C2.52035 27.3847 2.66715 27.7676 2.94575 28.1612C2.99083 28.231 2.99083 28.231 3.03683 28.3023C3.28601 28.5608 3.5739 28.7945 3.93456 28.844C3.95174 28.8093 3.96891 28.7747 3.98661 28.739C3.98661 28.791 3.98661 28.843 3.98661 28.8965C4.50865 29.0458 4.99637 29.0186 5.49585 28.7981C5.64022 28.7161 5.77572 28.6235 5.91219 28.5288C5.95298 28.5007 5.99376 28.4725 6.03579 28.4435C6.0637 28.4197 6.0916 28.3958 6.12036 28.3713C6.12036 28.3366 6.12036 28.3019 6.12036 28.2662C6.15471 28.2662 6.18905 28.2662 6.22444 28.2662C6.6291 27.8146 6.78673 27.1961 6.76459 26.5993C6.70346 26.0676 6.53132 25.6636 6.1724 25.2722C6.14396 25.2387 6.11551 25.2053 6.08621 25.1708C5.68391 24.7245 5.17067 24.5745 4.5916 24.5204C4.00026 24.5718 3.49993 24.7625 3.10188 25.2196Z" fill="#27839F"/>
</svg>
