<svg width="76" height="77" viewBox="0 0 76 77" fill="none" xmlns="http://www.w3.org/2000/svg">
<path d="M73.8304 10.8388C69.3672 0.499503 59.4444 -3.10061 51.7341 2.92294C26.1536 22.9042 34.217 16.4454 8.08756 36.6186C0.35517 42.5868 -2.29584 55.8253 2.16757 66.1645C6.63096 76.5038 16.5509 80.0965 24.264 74.0804C50.3245 53.7486 42.2445 60.1668 67.9108 40.3846C75.6459 34.4239 78.2968 21.178 73.8304 10.8388ZM67.0911 37.5555L45.7094 54.0622C46.879 53.1584 47.5825 51.7641 47.9052 50.0452C50.8514 47.7472 54.6996 44.7778 62.5203 38.7801C64.8209 37.017 66.5448 34.4903 67.6263 31.5173C69.4308 26.5634 69.4029 20.4882 67.2041 15.3758C66.8871 14.6381 66.4818 14.0183 66.0979 13.3691C67.9712 20.9308 65.6841 29.4995 60.3134 33.6161C54.1451 38.3449 50.4431 41.2036 47.7038 43.3393C46.5535 37.0649 43.1852 29.7356 39.5797 25.1691C34.3715 29.2819 32.3632 30.9197 19.3095 40.9232C14.0102 44.9844 11.7178 53.3798 13.4558 60.8677C13.3924 60.8234 13.3289 60.7791 13.2654 60.7349C12.9647 60.2369 12.6668 59.7389 12.4213 59.1635C10.2227 54.0474 10.1951 47.9759 11.9992 43.022C13.0806 40.049 14.8047 37.526 17.1054 35.7592C28.6226 26.9322 31.5274 24.6564 35.6157 21.4472C34.1426 20.5988 32.7549 20.4809 31.6019 21.3846L52.9838 4.87791C67.3697 -6.22856 81.7064 26.272 67.0911 37.5555Z" fill="#008CB4"/>
</svg>
